HIERARCHY
ROOT root
{
	OFFSET	0	13.1	24.9
	CHANNELS 6  Xposition Yposition Zposition Xrotation Yrotation Zrotation
	JOINT spine_1
	{
		OFFSET	0	9.99999	0
		CHANNELS 3  Xrotation Yrotation Zrotation
		JOINT spine_2
		{
			OFFSET	0	112	-10
			CHANNELS 3  Xrotation Yrotation Zrotation
			JOINT spine_3
			{
				OFFSET	0	206.5	19.3
				CHANNELS 3  Xrotation Yrotation Zrotation
				JOINT spine_4
				{
					OFFSET	0	110.4	14.6
					CHANNELS 3  Xrotation Yrotation Zrotation
					JOINT neck_1
					{
						OFFSET	0	71.8	-50.3
						CHANNELS 3  Xrotation Yrotation Zrotation
						JOINT neck_2
						{
							OFFSET	0	86.2	-25.8
							CHANNELS 3  Xrotation Yrotation Zrotation
							JOINT head_ee
							{
								OFFSET	0	179.8	-8.7
								CHANNELS 3  Xrotation Yrotation Zrotation
								End Site
								{
									OFFSET	1	0	0
								}
							}
						}
					}
					JOINT left_clavicle
					{
						OFFSET	-43.2	22.4	-70.8
						CHANNELS 3  Xrotation Yrotation Zrotation
						JOINT left_shoulder
						{
							OFFSET	-93.9	-5.79999	48.7
							CHANNELS 3  Xrotation Yrotation Zrotation
							JOINT left_elbow
							{
								OFFSET	-291.4	-30.8	15.2
								CHANNELS 3  Xrotation Yrotation Zrotation
								JOINT left_lowarm_twist
								{
									OFFSET	-110.7	-3.89999	13.6
									CHANNELS 3  Xrotation Yrotation Zrotation
									JOINT left_hand
									{
										OFFSET	-110.7	-3.89999	13.6
										CHANNELS 3  Xrotation Yrotation Zrotation
										JOINT left_ee
										{
											OFFSET	-80.8	-5.10001	12.1
											CHANNELS 3  Xrotation Yrotation Zrotation
											End Site
											{
												OFFSET	1	0	0
											}
										}
									}
								}
							}
						}
					}
					JOINT right_clavicle
					{
						OFFSET	43.2	22.4	-70.8
						CHANNELS 3  Xrotation Yrotation Zrotation
						JOINT right_shoulder
						{
							OFFSET	93.9	-5.79999	48.7
							CHANNELS 3  Xrotation Yrotation Zrotation
							JOINT right_elbow
							{
								OFFSET	291.4	-30.8	15.2
								CHANNELS 3  Xrotation Yrotation Zrotation
								JOINT right_lowarm_twist
								{
									OFFSET	110.7	-3.89999	13.6
									CHANNELS 3  Xrotation Yrotation Zrotation
									JOINT right_hand
									{
										OFFSET	110.7	-3.89999	13.6
										CHANNELS 3  Xrotation Yrotation Zrotation
										JOINT right_ee
										{
											OFFSET	80.8	-5.10001	12.1
											CHANNELS 3  Xrotation Yrotation Zrotation
											End Site
											{
												OFFSET	1	0	0
											}
										}
									}
								}
							}
						}
					}
				}
			}
		}
	}
	JOINT left_hip
	{
		OFFSET	-82.8	-127.5	0.300001
		CHANNELS 3  Xrotation Yrotation Zrotation
		JOINT left_knee
		{
			OFFSET	-28.2	-396.7	2.2
			CHANNELS 3  Xrotation Yrotation Zrotation
			JOINT left_ankle
			{
				OFFSET	-11.7	-411.3	35.4
				CHANNELS 3  Xrotation Yrotation Zrotation
				JOINT left_toes
				{
					OFFSET	0	-60	-88.6
					CHANNELS 3  Xrotation Yrotation Zrotation
					JOINT left_foot_ee
					{
						OFFSET	-22.5	-16.5	-42.2
						CHANNELS 3  Xrotation Yrotation Zrotation
						End Site
						{
							OFFSET	1	0	0
						}
					}
				}
			}
		}
	}
	JOINT right_hip
	{
		OFFSET	82.8	-127.5	0.300001
		CHANNELS 3  Xrotation Yrotation Zrotation
		JOINT right_knee
		{
			OFFSET	28.2	-396.7	2.2
			CHANNELS 3  Xrotation Yrotation Zrotation
			JOINT right_ankle
			{
				OFFSET	11.7	-411.3	35.4
				CHANNELS 3  Xrotation Yrotation Zrotation
				JOINT right_toes
				{
					OFFSET	0	-60	-88.6
					CHANNELS 3  Xrotation Yrotation Zrotation
					JOINT right_foot_ee
					{
						OFFSET	22.5	-16.5	-42.2
						CHANNELS 3  Xrotation Yrotation Zrotation
						End Site
						{
							OFFSET	1	0	0
						}
					}
				}
			}
		}
	}
}
MOTION
Frames: 10
Frame Time: 0.02
2800.94 716.97 -1473.77 -8.48792975389 66.0536203851 11.1904956778 2.49187 -0.400974 -2.21013 2.49455 -0.259561 -2.23115 2.50426 0.117266 -2.24313 2.49732 -0.238376 -2.23352 -6.95499 2.70499 6.03241 -6.85389 0.655123 6.57766 -0.0 0.0 -0.0 4.2113 16.57 8.54586 17.2658 -17.1278 64.1053 2.74073 -53.6167 1.38514 -6.84085 -0.29066 0.824278 -0.671642 -3.62057 -6.06182 -0.0 0.0 -0.0 2.8909 14.1374 -4.4412 -27.2098 27.2592 -68.7339 0.553205 15.3254 -0.07443 34.513 0.09504 4.34185 -0.71935 -5.14285 2.57045 0.0 0.0 0.0 -11.4821 29.1679 3.95198 -8.02641 0.246313 1.20618 36.2999 -3.53868 -4.57833 -1.45169 0.0 0.0 -0.0 0.0 -0.0 40.0063 6.2847 -11.7807 -8.61804 -0.257743 -1.29625 38.5899 0.55237 4.75689 5.39087 -0.0 -0.0 0.0 0.0 0.0 
2707.34046338 741.542 -1499.67543665 15.8606739156 77.2273524506 -13.0560305841 -1.25184 -0.0464178 -2.22689 -1.24909 0.0953437 -2.22534 -1.25086 0.608156 -2.14279 -1.25717 0.262198 -2.2119 -2.4196 2.44195 5.212 -2.34515 0.312345 5.79084 -0.0 0.0 -0.0 4.3935 5.18137 8.669 11.9203 -6.28272 69.3322 2.12002 -46.3968 0.908659 -52.964 -4.42296 4.82887 -1.97884 1.2 -12.7737 -0.0 0.0 -0.0 3.24943 7.85318 -5.71492 -11.3555 24.8309 -67.8275 0.444978 12.4311 -0.0484625 15.0546 -0.282686 1.8968 -1.85494 -22.5057 1.76388 0.0 0.0 0.0 -14.2766 23.6595 -0.595428 -18.4321 0.311003 2.79929 34.4075 4.58734 -4.34127 -5.78911 0.0 0.0 -0.0 0.0 -0.0 24.1583 8.27907 -8.43838 -10.8785 -0.292829 -1.6413 37.3836 16.102 4.96316 -26.5984 0.0 0.0 0.0 0.0 0.0 
2707.95989481 741.542 -1501.8175479 14.41916665 75.9573481714 -11.5742295652 -1.25184 -0.0464178 -2.22689 -1.24909 0.0953437 -2.22534 -1.25086 0.608156 -2.14279 -1.25717 0.262198 -2.2119 -2.4196 2.44195 5.212 -2.34515 0.312345 5.79084 -0.0 0.0 -0.0 4.3935 5.18137 8.669 11.9203 -6.28272 69.3322 2.12002 -46.3968 0.908659 -52.964 -4.42296 4.82887 -1.97884 1.2 -12.7737 -0.0 0.0 -0.0 3.24943 7.85318 -5.71492 -11.3555 24.8309 -67.8275 0.444978 12.4311 -0.0484625 15.0546 -0.282686 1.8968 -1.85494 -22.5057 1.76388 0.0 0.0 0.0 -14.2766 23.6595 -0.595428 -18.4321 0.311003 2.79929 34.4075 4.58734 -4.34127 -5.78911 0.0 0.0 -0.0 0.0 -0.0 24.1583 8.27907 -8.43838 -10.8785 -0.292829 -1.6413 37.3836 16.102 4.96316 -26.5984 0.0 0.0 0.0 0.0 0.0 
2708.40185905 741.542 -1503.24299395 13.5933696387 75.1030444742 -10.7214043806 -1.25184 -0.0464178 -2.22689 -1.24909 0.0953437 -2.22534 -1.25086 0.608156 -2.14279 -1.25717 0.262198 -2.2119 -2.4196 2.44195 5.212 -2.34515 0.312345 5.79084 -0.0 0.0 -0.0 4.3935 5.18137 8.669 11.9203 -6.28272 69.3322 2.12002 -46.3968 0.908659 -52.964 -4.42296 4.82887 -1.97884 1.2 -12.7737 -0.0 0.0 -0.0 3.24943 7.85318 -5.71492 -11.3555 24.8309 -67.8275 0.444978 12.4311 -0.0484625 15.0546 -0.282686 1.8968 -1.85494 -22.5057 1.76388 0.0 0.0 0.0 -14.2766 23.6595 -0.595428 -18.4321 0.311003 2.79929 34.4075 4.58734 -4.34127 -5.78911 0.0 0.0 -0.0 0.0 -0.0 24.1583 8.27907 -8.43838 -10.8785 -0.292829 -1.6413 37.3836 16.102 4.96316 -26.5984 0.0 0.0 0.0 0.0 0.0 
2685.26180993 738.557 -1507.03913851 15.251468698 75.6902530841 -12.5781585793 -1.20412 -0.027574 -2.15126 -1.20155 0.10934 -2.14865 -1.2039 0.602309 -2.06544 -1.20976 0.268631 -2.1346 -0.810603 3.25578 4.59965 -0.755628 2.11164 5.27854 -0.0 0.0 -0.0 3.28964 4.86927 6.61954 9.40486 -7.03078 71.7382 1.89062 -43.1192 0.747066 -53.0389 -4.43193 4.83232 -1.79081 1.09622 -11.5408 -0.0 0.0 -0.0 3.44962 8.72057 -6.05994 -9.30163 24.6131 -68.5141 0.378323 10.6149 -0.0351456 15.6176 -0.283523 1.96871 -1.85977 -23.4804 1.32585 0.0 0.0 0.0 -14.0968 22.4364 -1.14261 -21.9182 0.267918 3.33238 34.2217 4.05678 -4.32392 -4.90015 0.0 0.0 -0.0 0.0 -0.0 22.2735 8.5869 -8.7234 -10.8208 -0.292103 -1.63248 38.3359 18.1076 5.12456 -26.2082 0.0 0.0 0.0 0.0 0.0 
2666.43734872 740.652 -1509.85210796 18.4522003762 76.086845141 -16.1323402512 -1.2321 -0.179093 -2.09081 -1.22967 -0.0457159 -2.09797 -1.2261 0.440431 -2.05175 -1.23196 0.110943 -2.09553 -0.128695 4.89556 4.19108 -0.0756984 5.30594 5.02438 -0.0 0.0 -0.0 3.19155 3.96818 6.38906 6.99769 -7.6218 72.1598 1.46047 -35.8826 0.472905 -51.4963 -4.24814 4.75887 -1.60215 0.413312 -10.574 -0.0 0.0 -0.0 3.78206 10.5572 -6.60939 -7.60025 24.5798 -68.4717 0.330586 9.30056 -0.0268905 16.2616 -0.283614 2.05095 -1.78021 -24.0823 0.585991 0.0 0.0 0.0 -11.1142 22.6376 -2.78941 -28.7825 0.0887689 4.36995 34.5558 4.05426 -4.35671 -5.00157 0.0 0.0 -0.0 0.0 -0.0 19.2781 8.9723 -8.50835 -8.74181 -0.260016 -1.31511 37.7977 20.7607 5.18209 -26.401 0.0 0.0 0.0 0.0 0.0 
2647.73299582 744.573 -1508.73669091 20.3665721771 75.6928243746 -17.9201524766 -1.42407 -0.0764493 -1.97032 -1.42191 0.0490575 -1.97119 -1.42195 0.509882 -1.90476 -1.42695 0.202722 -1.96136 -0.443192 5.7281 4.0934 -0.38329 6.91086 5.01407 -0.0 0.0 -0.0 2.68013 5.26397 5.5228 4.61121 -9.99612 73.203 1.25818 -31.9324 0.359986 -51.0848 -4.19945 4.73843 -1.33796 -0.00398612 -8.97347 -0.0 0.0 -0.0 4.15996 13.147 -7.20361 -5.34512 24.2276 -68.6163 0.307169 8.6521 -0.0232367 17.1202 -0.282298 2.16061 -1.6774 -24.5885 -0.234093 0.0 0.0 0.0 -9.2916 23.4086 -4.69711 -36.0631 -0.235485 5.43928 33.5303 4.40735 -4.25468 -5.3289 0.0 0.0 -0.0 0.0 -0.0 17.2115 9.33423 -8.55375 -8.39873 -0.253614 -1.26285 34.7695 24.5198 5.0531 -25.4072 0.0 0.0 0.0 0.0 0.0 
2648.13606264 744.573 -1510.45804073 19.5230452969 75.0868833126 -17.0484515546 -1.42407 -0.0764493 -1.97032 -1.42191 0.0490575 -1.97119 -1.42195 0.509882 -1.90476 -1.42695 0.202722 -1.96136 -0.443192 5.7281 4.0934 -0.38329 6.91086 5.01407 -0.0 0.0 -0.0 2.68013 5.26397 5.5228 4.61121 -9.99612 73.203 1.25818 -31.9324 0.359986 -51.0848 -4.19945 4.73843 -1.33796 -0.00398612 -8.97347 -0.0 0.0 -0.0 4.15996 13.147 -7.20361 -5.34512 24.2276 -68.6163 0.307169 8.6521 -0.0232367 17.1202 -0.282298 2.16061 -1.6774 -24.5885 -0.234093 0.0 0.0 0.0 -9.2916 23.4086 -4.69711 -36.0631 -0.235485 5.43928 33.5303 4.40735 -4.25468 -5.3289 0.0 0.0 -0.0 0.0 -0.0 17.2115 9.33423 -8.55375 -8.39873 -0.253614 -1.26285 34.7695 24.5198 5.0531 -25.4072 0.0 0.0 0.0 0.0 0.0 
2631.51053292 744.62 -1511.23944046 24.0549123896 76.3469148307 -21.7984511275 -1.5914 -0.0935141 -2.10011 -1.58895 0.0402806 -2.1018 -1.58844 0.537904 -2.03223 -1.59414 0.210275 -2.09165 0.167959 6.47193 3.27105 0.234557 8.83897 4.19177 -0.0 0.0 -0.0 2.36014 5.59401 4.96029 2.20469 -11.349 73.9674 1.09384 -28.4504 0.277303 -50.8261 -4.1689 4.72541 -1.09878 -0.337356 -7.50756 -0.0 0.0 -0.0 4.41971 15.3605 -7.57989 -2.98719 24.195 -68.7095 0.293702 8.27814 -0.0212541 17.8523 -0.279877 2.25409 -1.64283 -25.0925 -0.6626 0.0 0.0 0.0 -6.48065 23.2404 -6.59906 -42.2077 -0.613159 6.30453 33.5771 5.11351 -4.25846 -5.66634 0.0 0.0 -0.0 0.0 -0.0 15.0212 9.80342 -8.34477 -7.85957 -0.242922 -1.1808 32.7532 27.9021 5.01322 -25.3146 0.0 0.0 0.0 0.0 0.0 
2632.13716187 744.62 -1513.96832239 22.5950907256 75.4978873921 -20.2934758541 -1.5914 -0.0935141 -2.10011 -1.58895 0.0402806 -2.1018 -1.58844 0.537904 -2.03223 -1.59414 0.210275 -2.09165 0.167959 6.47193 3.27105 0.234557 8.83897 4.19177 -0.0 0.0 -0.0 2.36014 5.59401 4.96029 2.20469 -11.349 73.9674 1.09384 -28.4504 0.277303 -50.8261 -4.1689 4.72541 -1.09878 -0.337356 -7.50756 -0.0 0.0 -0.0 4.41971 15.3605 -7.57989 -2.98719 24.195 -68.7095 0.293702 8.27814 -0.0212541 17.8523 -0.279877 2.25409 -1.64283 -25.0925 -0.6626 0.0 0.0 0.0 -6.48065 23.2404 -6.59906 -42.2077 -0.613159 6.30453 33.5771 5.11351 -4.25846 -5.66634 0.0 0.0 -0.0 0.0 -0.0 15.0212 9.80342 -8.34477 -7.85957 -0.242922 -1.1808 32.7532 27.9021 5.01322 -25.3146 0.0 0.0 0.0 0.0 0.0 
